<svg xmlns="http://www.w3.org/2000/svg" height="40" viewBox="0 -960 960 960" width="40"><path d="M172.833-186.833V-210H600v23.167H172.833Zm467.231-282q-71.731 0-121.481-49.784t-49.75-121.417q0-71.633 49.784-121.799Q568.401-812 640.034-812q71.633 0 121.799 50.103Q812-711.795 812-640.064t-50.103 121.481q-50.102 49.75-121.833 49.75Zm-467.231-42V-534h206.973q3.241 7.048 5.551 12.274 2.31 5.226 6.31 10.893H172.833Zm0 162V-372h380.5q11.367 3.576 23.267 5.288 11.9 1.712 23.4 4.379v13.5H172.833ZM626-612h28v-138h-28v138Zm14 86q8 0 14-6t6-14q0-8-6-14t-14-6q-8 0-14 6t-6 14q0 8 6 14t14 6Z"/></svg>